<?xml version="1.0" standalone="no"?>
<!DOCTYPE svg PUBLIC "-//W3C//DTD SVG 20010904//EN"
 "http://www.w3.org/TR/2001/REC-SVG-20010904/DTD/svg10.dtd">
<svg version="1.0" xmlns="http://www.w3.org/2000/svg"
 width="121.740045pt" height="143.143489pt" viewBox="0 0 121.740045 143.143489"
 preserveAspectRatio="xMidYMid meet">
<metadata>
Created by Potrace Professional 1.1m
</metadata>
<g transform="translate(-30.000000,159.943254) rotate(-360.00) scale(0.011429,-0.011429)"
fill="#000000" stroke="none">
<path d="M7613 13985 c-1264 -78 -2471 -615 -3380 -1505 -849 -831 -1385
-1881 -1555 -3047 -55 -376 -53 -219 -53 -4233 l0 -3730 5326 3 5326 2 0 3723
c0 3937 2 3816 -48 4181 -122 904 -470 1756 -1010 2474 -1090 1450 -2803 2243
-4606 2132z m651 -346 c790 -54 1517 -274 2184 -661 970 -565 1715 -1429 2135
-2480 38 -95 70 -177 70 -182 0 -6 -480 -490 -1066 -1076 l-1066 -1066 -1302
1302 -1302 1302 -1284 -1283 -1283 -1284 -1052 1053 -1052 1052 55 142 c421
1078 1174 1955 2175 2533 828 479 1837 713 2788 648z m3375 -4830 c618 618
1126 1120 1130 1116 4 -4 19 -62 35 -128 99 -438 131 -794 132 -1465 l0 -347
-1208 -1207 -1207 -1208 -1302 1302 -1302 1302 -1284 -1283 -1283 -1284 -1189
1189 -1190 1189 1 468 c0 464 6 603 37 845 19 151 61 390 88 499 11 43 22 92
26 109 7 30 43 -5 1114 -1076 l1108 -1107 1283 1283 1284 1284 1302 -1302
1302 -1302 1123 1123z m87 -2517 l1210 1210 0 -1060 0 -1061 -1208 -1207
-1207 -1208 -1302 1302 -1302 1302 -1284 -1283 -1283 -1284 -1189 1189 -1190
1189 1 1055 0 1056 1186 -1187 1187 -1186 1283 1283 1284 1284 1302 -1302
1302 -1302 1210 1210z m0 -2604 l1210 1210 0 -1541 0 -1540 -4982 0 -4982 0 0
1535 0 1536 1186 -1187 1187 -1186 1283 1283 1284 1284 1302 -1302 1302 -1302
1210 1210z"/>
</g>
</svg>
